<svg width="29" height="29" viewBox="0 0 29 29" fill="none" xmlns="http://www.w3.org/2000/svg">
<path d="M18.0919 14.5455C12.3091 16.0345 11.0499 17.2937 9.56091 23.0765C9.55793 23.0856 9.55217 23.0935 9.54444 23.0991C9.53671 23.1047 9.52741 23.1077 9.51787 23.1077C9.50832 23.1077 9.49903 23.1047 9.4913 23.0991C9.48357 23.0935 9.4778 23.0856 9.47482 23.0765C7.98132 17.2937 6.72209 16.0345 0.939306 14.5455C0.93024 14.5425 0.922347 14.5368 0.916751 14.5291C0.911155 14.5213 0.908142 14.512 0.908142 14.5025C0.908142 14.4929 0.911155 14.4836 0.916751 14.4759C0.922347 14.4682 0.93024 14.4624 0.939306 14.4594C6.72209 12.9682 7.98132 11.709 9.47256 5.92618C9.47554 5.91712 9.4813 5.90922 9.48903 5.90363C9.49676 5.89803 9.50606 5.89502 9.5156 5.89502C9.52514 5.89502 9.53444 5.89803 9.54217 5.90363C9.5499 5.90922 9.55567 5.91712 9.55865 5.92618C11.0499 11.709 12.3091 12.9682 18.0919 14.4594C18.101 14.4624 18.1089 14.4682 18.1145 14.4759C18.12 14.4836 18.1231 14.4929 18.1231 14.5025C18.1231 14.512 18.12 14.5213 18.1145 14.5291C18.1089 14.5368 18.101 14.5425 18.0919 14.5455Z" fill="#9CEAEF"/>
<path d="M11.7536 14.46C10.4037 13.9901 10.0054 12.7612 9.55412 11.3565C9.55157 11.3483 9.54645 11.3411 9.53952 11.336C9.53259 11.3309 9.52421 11.3281 9.5156 11.3281C9.507 11.3281 9.49861 11.3309 9.49168 11.336C9.48475 11.3411 9.47964 11.3483 9.47709 11.3565C9.02396 12.7612 8.62748 13.9901 7.27762 14.46C7.26951 14.463 7.26251 14.4684 7.25758 14.4756C7.25264 14.4827 7.25 14.4912 7.25 14.4998C7.25 14.5085 7.25264 14.517 7.25758 14.5241C7.26251 14.5312 7.26951 14.5367 7.27762 14.5397C8.62748 15.0096 9.02578 16.2385 9.47709 17.6432C9.47964 17.6514 9.48475 17.6586 9.49168 17.6637C9.49861 17.6688 9.507 17.6715 9.5156 17.6715C9.52421 17.6715 9.53259 17.6688 9.53952 17.6637C9.54645 17.6586 9.55157 17.6514 9.55412 17.6432C10.0072 16.2385 10.4037 15.0096 11.7536 14.5397C11.7617 14.5367 11.7687 14.5312 11.7736 14.5241C11.7786 14.517 11.7812 14.5085 11.7812 14.4998C11.7812 14.4912 11.7786 14.4827 11.7736 14.4756C11.7687 14.4684 11.7617 14.463 11.7536 14.46Z" fill="#E9FF70"/>
<path d="M28.0602 6.8397C24.0419 7.80259 23.2086 8.63588 22.2457 12.6542C22.2425 12.6629 22.2367 12.6705 22.2291 12.6758C22.2215 12.6812 22.2124 12.684 22.2031 12.684C22.1938 12.684 22.1847 12.6812 22.1771 12.6758C22.1695 12.6705 22.1637 12.6629 22.1605 12.6542C21.1976 8.63588 20.3643 7.80259 16.346 6.8397C16.3373 6.83652 16.3297 6.83073 16.3244 6.82311C16.319 6.81549 16.3162 6.80641 16.3162 6.7971C16.3162 6.7878 16.319 6.77872 16.3244 6.7711C16.3297 6.76348 16.3373 6.75768 16.346 6.75451C20.3643 5.79162 21.1976 4.95832 22.1605 0.940009C22.1637 0.931262 22.1695 0.923704 22.1771 0.918363C22.1847 0.913021 22.1938 0.910156 22.2031 0.910156C22.2124 0.910156 22.2215 0.913021 22.2291 0.918363C22.2367 0.923704 22.2425 0.931262 22.2457 0.940009C23.2086 4.95832 24.0419 5.79162 28.0602 6.75451C28.0689 6.75768 28.0765 6.76348 28.0818 6.7711C28.0872 6.77872 28.0901 6.7878 28.0901 6.7971C28.0901 6.80641 28.0872 6.81549 28.0818 6.82311C28.0765 6.83073 28.0689 6.83652 28.0602 6.8397Z" fill="#7BE495"/>
<path d="M22.6562 5.4375H21.75V6.34375H22.6562V5.4375Z" fill="#9CEAEF"/>
<path d="M22.6562 7.25H21.75V8.15625H22.6562V7.25Z" fill="#9CEAEF"/>
<path d="M23.5625 6.34375H22.6562V7.25H23.5625V6.34375Z" fill="#9CEAEF"/>
<path d="M21.75 6.34375H20.8438V7.25H21.75V6.34375Z" fill="#9CEAEF"/>
<path d="M28.0602 22.2459C24.0419 23.2088 23.2086 24.0421 22.2457 28.0604C22.2425 28.0692 22.2367 28.0768 22.2291 28.0821C22.2215 28.0874 22.2124 28.0903 22.2031 28.0903C22.1938 28.0903 22.1847 28.0874 22.1771 28.0821C22.1695 28.0768 22.1637 28.0692 22.1605 28.0604C21.1976 24.0421 20.3643 23.2088 16.346 22.2459C16.3373 22.2428 16.3297 22.237 16.3244 22.2294C16.319 22.2217 16.3162 22.2127 16.3162 22.2034C16.3162 22.194 16.319 22.185 16.3244 22.1773C16.3297 22.1697 16.3373 22.1639 16.346 22.1608C20.3643 21.1979 21.1976 20.3646 22.1605 16.3463C22.1637 16.3375 22.1695 16.33 22.1771 16.3246C22.1847 16.3193 22.1938 16.3164 22.2031 16.3164C22.2124 16.3164 22.2215 16.3193 22.2291 16.3246C22.2367 16.33 22.2425 16.3375 22.2457 16.3463C23.2086 20.3646 24.0419 21.1979 28.0602 22.1608C28.0689 22.1639 28.0765 22.1697 28.0818 22.1773C28.0872 22.185 28.0901 22.194 28.0901 22.2034C28.0901 22.2127 28.0872 22.2217 28.0818 22.2294C28.0765 22.237 28.0689 22.2428 28.0602 22.2459Z" fill="#7BE495"/>
<path d="M22.6562 20.8438H21.75V21.75H22.6562V20.8438Z" fill="#9CEAEF"/>
<path d="M22.6562 22.6562H21.75V23.5625H22.6562V22.6562Z" fill="#9CEAEF"/>
<path d="M23.5625 21.75H22.6562V22.6562H23.5625V21.75Z" fill="#9CEAEF"/>
<path d="M21.75 21.75H20.8438V22.6562H21.75V21.75Z" fill="#9CEAEF"/>
</svg>
